<?xml version="1.0" encoding="utf-8"?>
<!-- Generator: Adobe Illustrator 25.2.1, SVG Export Plug-In . SVG Version: 6.00 Build 0)  -->
<svg version="1.1" id="Layer_1" xmlns="http://www.w3.org/2000/svg" xmlns:xlink="http://www.w3.org/1999/xlink" x="0px" y="0px"
	 viewBox="0 0 164 50" style="enable-background:new 0 0 164 50;" xml:space="preserve">
<style type="text/css">
	.st0{fill-rule:evenodd;clip-rule:evenodd;fill:#6916E6;}
</style>
<path class="st0" d="M33.4,2H24v26h19v-6.6h-9.6V2z M124.4,28H115V2h19v6.6h-9.6V28z M45,28h10V2H45V28z M60,2v26h9.4V8.5h6.1V28H85
	V2H60z M163,28V2h-9.4v19.5h-6.1V2H138v26H163z M100,6.7c-3,0-4.4,1.6-4.7,5.2h8.7C104,8.4,102.8,6.7,100,6.7z M99.9,0.4
	c7.8,0,11.7,4,11.7,12.1v4.2H95.4c0.4,3.9,2.2,5.3,7.7,5.3c2.3,0,4.5-0.3,6.7-0.9l0.8,5.7c-2.7,0.9-5.8,1.4-9.3,1.4
	c-9.9,0-14.1-4.5-14.1-13.9v-0.1C87.3,5.1,91.2,0.4,99.9,0.4L99.9,0.4z M0.9,31v9.4h9.4v9.4h9.4V31L0.9,31z"/>
</svg>
